<?xml version="1.0" encoding="UTF-8"?>
<svg id="Layer_2" data-name="Layer 2" xmlns="http://www.w3.org/2000/svg" viewBox="0 0 100.23 101.53">
  <defs>
    <style>
      .cls-1 {
        fill: #fff;
      }

      .cls-2 {
        fill: #ffd7bf;
      }
    </style>
  </defs>
  <g id="Layer_1-2" data-name="Layer 1">
    <g>
      <path d="M12.32,24.61c-1.09-.17-2.18.42-2.9,1.25-.72.83-1.13,1.88-1.48,2.92-3.96,11.53-3.15,24.06-2.63,36.24.11,2.55.21,5.1-.02,7.64-.41,4.51-1.83,8.87-3.24,13.18,1.56-.91,3.22-1.65,4.93-2.21-.24,1.6-.62,3.19-1.15,4.72,2.39-.43,4.78-.86,7.16-1.29.09.49,0,1.02-.25,1.45,1.57-1.38,6.94-6.43,8.51-7.81"/>
      <path d="M12.32,24.1c-1.89-.23-3.4,1.22-4.18,2.8-.9,1.83-1.42,3.9-1.91,5.88-1.01,4.08-1.52,8.27-1.74,12.46-.22,4.26-.15,8.52,0,12.78.16,4.4.58,8.83.37,13.23-.23,4.98-1.78,9.75-3.32,14.45-.14.43.38.79.75.57,1.53-.88,3.13-1.61,4.81-2.16l-.63-.63c-.24,1.61-.63,3.18-1.15,4.72-.13.4.27.69.63.63,2.39-.43,4.78-.86,7.16-1.29l-.63-.35c.06.37-.02.73-.2,1.06-.28.52.37,1,.8.61,2.89-2.55,5.63-5.26,8.51-7.81.49-.44-.23-1.15-.72-.72-2.89,2.55-5.63,5.26-8.51,7.81l.8.61c.32-.59.4-1.18.3-1.84-.04-.29-.38-.4-.63-.35-2.39.43-4.78.86-7.16,1.29l.63.63c.52-1.54.9-3.11,1.15-4.72.05-.35-.22-.76-.63-.63-1.76.58-3.45,1.34-5.05,2.26l.75.57c1.33-4.04,2.64-8.11,3.15-12.35.52-4.24.12-8.59-.06-12.86-.35-8.26-.6-16.63.95-24.79.43-2.27,1-4.51,1.73-6.71.61-1.82,1.64-4.43,4.01-4.14.65.08.64-.94,0-1.02h0Z"/>
      <path d="M86.7,85.08c.94,1.81,1.89,3.62,2.83,5.42.57-2.3,1.15-4.6,1.72-6.9.88,1.56,1.48,3.27,1.76,5.03-.68-2.79,1.28-5.43,2.5-8.03,1.47-3.14,1.89-6.66,2.3-10.1.78.97,1.37,2.09,1.73,3.28.39-1.61.09-3.3-.18-4.93-1.48-9.08-1.96-18.32-1.44-27.5"/>
      <path d="M86.26,85.33c.94,1.81,1.89,3.62,2.83,5.42.2.39.83.29.93-.12.57-2.3,1.15-4.6,1.72-6.9l-.93.12c.85,1.53,1.42,3.18,1.72,4.91l.98-.27c-.34-1.53.15-3.03.8-4.4.65-1.37,1.44-2.7,2.02-4.12,1.23-3.01,1.61-6.28,1.98-9.49l-.87.36c.72.91,1.25,1.95,1.6,3.05.14.46.87.51.98,0,.45-2,0-4.01-.3-5.99-.34-2.16-.62-4.33-.84-6.51-.44-4.24-.65-8.51-.66-12.77,0-2.43.07-4.86.2-7.3.04-.66-.98-.65-1.02,0-.47,8.44-.1,16.9,1.1,25.26.33,2.28,1.05,4.74.54,7.03h.98c-.41-1.28-1.03-2.45-1.86-3.51-.3-.39-.82-.02-.87.36-.39,3.3-.78,6.71-2.19,9.77-1.24,2.69-3.29,5.39-2.59,8.51.15.65,1.09.36.98-.27-.3-1.81-.92-3.55-1.82-5.15-.21-.38-.82-.3-.93.12-.57,2.3-1.15,4.6-1.72,6.9l.93-.12c-.94-1.81-1.89-3.62-2.83-5.42-.3-.58-1.18-.07-.88.51h0Z"/>
      <path class="cls-2" d="M97.34,55.08c0,1.51-.07,3.01-.22,4.5-.15,1.5-.37,2.99-.66,4.46-.29,1.48-.66,2.93-1.09,4.37s-.94,2.86-1.52,4.25c-.58,1.39-1.22,2.75-1.93,4.08-.71,1.33-1.48,2.62-2.32,3.87-.84,1.25-1.73,2.46-2.68,3.62-.95,1.16-1.96,2.28-3.02,3.34-1.06,1.06-2.18,2.07-3.34,3.03s-2.37,1.85-3.62,2.69c-1.25.84-2.54,1.61-3.86,2.32s-2.68,1.35-4.07,1.93c-1.39.58-2.8,1.08-4.24,1.52-1.44.44-2.89.8-4.37,1.1-1.47.29-2.96.51-4.46.66-1.5.15-3,.22-4.5.22s-3-.07-4.5-.22c-1.5-.15-2.98-.37-4.46-.66-1.47-.29-2.93-.66-4.37-1.1-1.44-.44-2.85-.94-4.24-1.52-1.39-.58-2.75-1.22-4.07-1.93s-2.61-1.48-3.86-2.32c-1.25-.84-2.46-1.73-3.62-2.69-1.16-.95-2.27-1.96-3.34-3.03-1.06-1.06-2.07-2.18-3.02-3.34-.95-1.16-1.85-2.37-2.68-3.62-.84-1.25-1.61-2.54-2.32-3.87-.71-1.33-1.35-2.69-1.93-4.08-.58-1.39-1.08-2.81-1.52-4.25s-.8-2.9-1.09-4.37c-.29-1.48-.51-2.96-.66-4.46s-.22-3-.22-4.5.07-3.01.22-4.5.37-2.99.66-4.46c.29-1.48.66-2.93,1.09-4.37s.94-2.86,1.52-4.25c.58-1.39,1.22-2.75,1.93-4.08.71-1.33,1.48-2.62,2.32-3.87.84-1.25,1.73-2.46,2.68-3.62.95-1.16,1.96-2.28,3.02-3.34,1.06-1.06,2.18-2.07,3.34-3.03,1.16-.95,2.37-1.85,3.62-2.69,1.25-.84,2.54-1.61,3.86-2.32s2.68-1.35,4.07-1.93c1.39-.58,2.8-1.08,4.24-1.52,1.44-.44,2.89-.8,4.37-1.1,1.47-.29,2.96-.51,4.46-.66,1.5-.15,3-.22,4.5-.22s3,.07,4.5.22c1.5.15,2.98.37,4.46.66s2.93.66,4.37,1.1c1.44.44,2.85.94,4.24,1.52,1.39.58,2.75,1.22,4.07,1.93s2.61,1.48,3.86,2.32c1.25.84,2.46,1.73,3.62,2.69,1.16.95,2.27,1.96,3.34,3.03,1.06,1.06,2.07,2.18,3.02,3.34.95,1.16,1.85,2.37,2.68,3.62.84,1.25,1.61,2.54,2.32,3.87.71,1.33,1.35,2.69,1.93,4.08.58,1.39,1.08,2.81,1.52,4.25s.8,2.9,1.09,4.37c.29,1.48.51,2.96.66,4.46.15,1.5.22,3,.22,4.5Z"/>
      <path d="M96.82,55.08c0,4.78-.74,9.53-2.22,14.07-1.41,4.36-3.5,8.48-6.14,12.22-2.65,3.74-5.83,7.03-9.44,9.8-3.61,2.77-7.7,5.04-12.01,6.61-4.43,1.62-9.09,2.54-13.8,2.72-4.79.18-9.59-.38-14.2-1.69-4.42-1.25-8.62-3.19-12.46-5.71-3.84-2.52-7.22-5.57-10.13-9.08-2.9-3.51-5.31-7.51-7.03-11.74-1.72-4.24-2.86-8.96-3.22-13.63-.37-4.8,0-9.65,1.15-14.33,1.09-4.5,2.88-8.82,5.28-12.77,2.35-3.88,5.28-7.39,8.66-10.41,3.41-3.04,7.28-5.56,11.44-7.45,4.16-1.89,8.84-3.21,13.49-3.73,4.76-.54,9.62-.35,14.32.61,4.7.96,8.94,2.56,12.99,4.82,3.98,2.22,7.61,5.04,10.76,8.35,3.13,3.29,5.77,7.04,7.8,11.11,2.03,4.07,3.5,8.68,4.22,13.29.36,2.31.52,4.64.53,6.97,0,.66,1.02.66,1.02,0,0-4.86-.75-9.71-2.25-14.34-1.45-4.48-3.59-8.74-6.32-12.58-2.7-3.78-5.94-7.14-9.62-9.98-3.71-2.85-7.84-5.13-12.23-6.75-4.39-1.62-9.36-2.61-14.2-2.8-4.87-.19-9.78.39-14.47,1.72-4.52,1.28-8.84,3.26-12.76,5.85-3.92,2.59-7.4,5.71-10.36,9.31-2.97,3.61-5.38,7.64-7.16,11.97-1.82,4.45-2.93,9.17-3.3,13.96-.37,4.79.02,9.89,1.18,14.67,1.11,4.58,2.94,8.99,5.38,13.02,2.41,3.97,5.41,7.58,8.88,10.66,3.5,3.11,7.46,5.7,11.72,7.63,4.26,1.93,8.99,3.25,13.74,3.8,4.88.57,9.84.35,14.66-.62,4.66-.94,9.16-2.62,13.3-4.93,4.05-2.26,7.77-5.15,10.97-8.5,3.2-3.36,5.92-7.21,7.99-11.38,2.07-4.16,3.59-8.88,4.31-13.61.36-2.35.54-4.73.54-7.11,0-.66-1.02-.66-1.02,0h0Z"/>
      <path class="cls-1" d="M18.73,48.96c.68-.85,1.72-1.33,2.78-1.57,1.06-.24,2.15-.27,3.23-.39,1.78-.19,3.52-.61,5.31-.71,1.33-.07,2.65.03,3.98.13,1.65.13,3.31.26,4.96.4,1.9.17,3.83.38,5.59,1.13.4.17.79.37,1.1.68.29.28.49.65.68,1,.83,1.51,1.68,3.08,1.82,4.8.07.83-.02,1.66-.04,2.49-.02,1.4.19,2.8.08,4.2-.04.46-.11.92-.32,1.32-.46.91-1.49,1.37-2.47,1.63-1.04.27-2.11.39-3.18.47-6.61.51-13.26-.26-19.8-1.42-1.01-.18-2.06-.39-2.87-1.03-.87-.69-1.32-1.8-1.5-2.89-.19-1.1-.15-2.21-.24-3.33-.08-.96-.26-1.92-.26-2.89,0-1.62.53-3.24,1.48-4.56"/>
      <path d="M19.09,49.32c.84-.99,2.06-1.39,3.31-1.58,1.36-.2,2.73-.25,4.09-.47s2.76-.46,4.16-.49c1.4-.03,2.85.11,4.27.22,1.42.11,2.83.22,4.24.35,1.41.13,2.74.28,4.06.66.57.17,1.16.36,1.68.67.59.35.87.94,1.19,1.52.63,1.16,1.25,2.35,1.5,3.66.25,1.31,0,2.72.06,4.06.03.7.09,1.4.09,2.1,0,.7.04,1.52-.28,2.17-.49.99-1.74,1.32-2.72,1.53-1.4.3-2.85.37-4.28.43-5.73.25-11.45-.4-17.09-1.38-1.28-.22-2.83-.35-3.77-1.36-.94-1.01-1.11-2.6-1.17-3.97-.04-.78-.07-1.56-.16-2.34-.09-.78-.19-1.52-.17-2.29.04-1.49.55-2.91,1.41-4.13.38-.54-.5-1.05-.88-.51-.79,1.12-1.3,2.41-1.48,3.77-.2,1.51.14,3,.22,4.51.08,1.51.06,2.9.62,4.25.5,1.19,1.37,2.04,2.59,2.48,1.3.47,2.74.6,4.09.82,1.55.25,3.11.47,4.68.66,3.16.37,6.34.59,9.53.54,1.53-.02,3.08-.09,4.6-.27,1.25-.15,2.61-.35,3.7-1.03,1.17-.73,1.52-1.86,1.57-3.18.06-1.59-.14-3.17-.07-4.76.07-1.49-.13-2.84-.71-4.23-.25-.59-.54-1.16-.84-1.73-.32-.6-.62-1.25-1.11-1.73-.94-.94-2.52-1.3-3.79-1.54-1.46-.28-2.96-.39-4.45-.52-1.78-.15-3.57-.31-5.35-.41-1.68-.09-3.33.03-4.99.29-.9.14-1.8.3-2.71.4-.8.09-1.62.13-2.42.24-1.47.2-2.96.69-3.95,1.86-.42.5.3,1.22.72.72h0Z"/>
      <path d="M65.6,12.47c3.15,2.53,3.45,7.03,2.29,10.74-.43,1.38-1.09,2.78-2.36,3.6-1.07.69-2.43.86-3.73,1.01-9.34,1.03-18.73,1.67-28.13,1.93-4.48.12-9.49.37-12.51,3.42-1.15,1.16-1.93,2.68-3.33,3.58-1.72,1.11-4.1,1.11-5.71,2.34-2.89,2.22-1.59,6.79-3.79,9.62-1.4,1.79-4.09,2.68-4.85,4.78-2.64-3.36-1.92-7.93-2.13-12.08-.16-3.1-.87-4.52-.79-7.62.13-5.45,1.15-7.25,3.72-12.15,1.99-3.79,7.11-8.72,10.56-11.48,2.59-2.08,7.03-5.17,10.28-6.18,7.01-2.19,12.44-3.7,19.84-3.43,4.88.18,10.24.48,13.17,2.1.81.45,2.1,1.04,3.35,2.42,1.22,1.35,2.12,2.34,2.9,3.24,1.04,1.2,2.05,1.8,1.39,3.75.56-1.96,2.45-3.08,4.52-3.75,2.07-.68,4.33-.67,6.53-.52,3.23.23,6.43.77,9.54,1.6,1.69.45,3.42,1.03,4.67,2.18,1.02.94,1.63,2.18,2.21,3.4,1.2,2.52,2.36,5.05,3.48,7.6,1.28,2.93,2.53,5.99,2.35,9.14-.16,2.78-1.44,5.52-.93,8.27.32,1.73,1.28,3.69.13,5.09-.42.51-1.06.83-1.54,1.29-.48.46-.79,1.21-.38,1.73-2.92-7.43-7.51-14.29-13.39-20.01-.58-.57-1.2-1.14-1.95-1.49-1.54-.72-3.42-.41-5.05.12-1.63.53-3.23,1.26-4.95,1.37-1.72.11-3.69-.64-4.2-2.16"/>
      <path d="M65.24,12.83c2.08,1.7,2.86,4.3,2.75,6.92-.11,2.57-.92,6.12-3.65,7.07-1.56.54-3.32.57-4.95.74-1.84.19-3.68.36-5.51.53-3.65.32-7.3.57-10.95.77-3.65.2-7.01.28-10.51.42-2.78.1-5.69.3-8.29,1.37-1.23.51-2.39,1.21-3.33,2.16-1,1.01-1.71,2.3-2.81,3.2-1.11.9-2.65,1.17-4.01,1.62-1.24.41-2.37,1.01-3.16,2.08-1.44,1.97-1.27,4.61-1.97,6.86-.38,1.2-1.06,2.12-2.03,2.91-.98.79-2.09,1.43-2.92,2.38-.39.44-.69.93-.91,1.48l.93-.12c-2.23-2.9-1.98-6.67-2.02-10.13-.02-1.78-.19-3.52-.49-5.28-.3-1.75-.41-3.58-.3-5.42.09-1.47.3-2.94.74-4.34.44-1.41,1.09-2.74,1.76-4.05.74-1.45,1.47-2.89,2.42-4.21s2.11-2.65,3.28-3.87c2.23-2.34,4.64-4.52,7.23-6.45,2.59-1.93,5.54-4,8.7-5.01,3.64-1.16,7.34-2.25,11.11-2.87,3.86-.64,7.73-.61,11.63-.39,1.9.11,3.81.26,5.7.59,1.5.27,2.98.65,4.32,1.38.65.35,1.29.7,1.89,1.14.8.6,1.45,1.37,2.12,2.11.57.63,1.14,1.26,1.7,1.9.46.53,1.01,1.03,1.41,1.6.44.64.39,1.29.15,2l.98.27c.54-1.76,2.24-2.73,3.88-3.3,2.15-.75,4.43-.76,6.68-.6,2.37.17,4.73.5,7.05,1.01,2.07.45,4.33.9,6.12,2.09,1.78,1.19,2.63,3.44,3.52,5.35,1.02,2.18,2.02,4.38,2.98,6.59.96,2.21,1.79,4.31,2.01,6.62.22,2.3-.46,4.43-.83,6.66-.19,1.16-.26,2.33-.05,3.5.2,1.1.67,2.17.66,3.3,0,.53-.15,1.02-.5,1.41-.35.39-.81.65-1.21.97-.74.61-1.28,1.67-.7,2.56.3.45,1.15.18.93-.39-2.04-5.17-4.83-10.01-8.26-14.38-1.75-2.23-3.65-4.44-5.77-6.34-1.04-.93-2.2-1.51-3.61-1.57-1.41-.06-2.77.33-4.08.79-1.5.53-3.06,1.19-4.69,1.12-1.2-.05-2.69-.56-3.15-1.79-.23-.61-1.21-.35-.98.27.87,2.36,3.75,2.8,5.92,2.37,2.67-.54,5.54-2.52,8.33-1.47,1.36.51,2.42,1.84,3.4,2.86.98,1.02,1.91,2.05,2.8,3.13,1.79,2.15,3.42,4.43,4.87,6.81,1.65,2.7,3.07,5.54,4.23,8.48l.93-.39c-.57-.85,1.02-1.64,1.52-2.08.74-.66,1.07-1.59,1.01-2.57s-.39-1.98-.61-2.96c-.26-1.16-.2-2.35,0-3.52.39-2.29,1.07-4.49.82-6.85-.24-2.35-1.08-4.54-2-6.69-.98-2.3-2.02-4.58-3.09-6.84-.94-1.99-1.78-4.2-3.59-5.57s-4.1-1.84-6.22-2.33c-2.37-.54-4.79-.91-7.22-1.11-2.62-.22-5.31-.25-7.81.69-1.89.71-3.69,1.88-4.31,3.91-.19.63.78.89.98.27.24-.75.33-1.55.01-2.29-.28-.64-.79-1.13-1.25-1.64-1.26-1.37-2.41-2.9-3.79-4.16-2.47-2.26-5.73-3.13-8.96-3.55-2.01-.26-4.05-.37-6.07-.46-2.03-.09-4.14-.12-6.22.04-3.89.3-7.7,1.18-11.44,2.27-1.8.53-3.64,1-5.35,1.78-1.72.77-3.18,1.67-4.68,2.67-2.78,1.85-5.39,3.95-7.81,6.26-2.47,2.34-4.97,4.91-6.66,7.89-1.54,2.73-3.11,5.66-3.65,8.78-.31,1.79-.43,3.66-.33,5.47.11,1.81.54,3.48.7,5.23.34,3.62-.35,7.47.98,10.94.32.84.74,1.62,1.29,2.33.28.36.76.31.93-.12.45-1.16,1.56-1.91,2.52-2.61.96-.7,2.01-1.5,2.66-2.59,1.29-2.17,1.02-4.8,1.94-7.09.5-1.23,1.41-2.06,2.65-2.53,1.33-.51,2.76-.72,4.02-1.41s2.15-1.95,3.08-3.08c.93-1.13,1.94-1.92,3.22-2.51,2.59-1.21,5.57-1.39,8.38-1.49,3.61-.13,7.21-.23,10.81-.43s7.38-.47,11.05-.79c1.84-.16,3.68-.34,5.51-.53,1.64-.17,3.42-.21,4.97-.79,2.75-1.04,3.77-4.09,4.13-6.77.34-2.54-.02-5.31-1.57-7.42-.4-.54-.85-1.02-1.37-1.45-.52-.43-1.22.31-.72.72h.03Z"/>
      <path d="M56.64,72.93c.91,1.13,1.82,2.29,2.46,3.6.31.63.54,1.3.65,1.99.05.3.19.88-.09,1.08-.26.19-.78.17-1.09.2-1.67.17-3.37.19-5.05.26-1.68.07-3.42.15-5.13.23-1.95.09-3.89.18-5.84.26-.65.03-.65,1.05,0,1.02,3.89-.18,7.79-.35,11.68-.53.97-.04,1.94-.09,2.9-.13.86-.04,1.78-.05,2.62-.27,1.7-.44,1.04-2.66.59-3.83-.67-1.73-1.83-3.19-2.97-4.62-.41-.51-1.13.22-.72.72h0Z"/>
      <path d="M31.98,56.45c.5.22.97.49,1.38.84.16.13.35.2.56.11.18-.08.32-.26.31-.46-.03-.98-.07-1.96-.1-2.94l-.95.26c.53.91.76,1.93.68,2.98l.76-.44c-.25-.12-.46-.27-.6-.46-.07-.09-.17-.28-.2-.33-.03-.07-.05-.14-.07-.22,0-.02-.04-.2-.04-.14-.03-.25-.17-.47-.44-.5-.23-.03-.51.11-.56.37-.03.17-.06.35-.09.52l.75-.31c-.31-.16-.61-.33-.92-.49l-.39.93c.88.3,1.77.59,2.65.89.38.13.72-.27.63-.63-.2-.77-.92-1.21-1.65-1.4-.35-.09-.72-.11-1.07-.18-.19-.03-.38-.07-.57-.13-.13-.04-.3-.12-.4-.2l-.22.85c.43-.15.85-.18,1.29-.05.54.15.91-.67.39-.93-.38-.19-.8-.05-.98.33-.2.42,0,.84.38,1.07.14.09.3.12.44.19-.04-.02-.03,0,.02.02.05.03.06.04.02.01-.01-.02-.02-.03-.02-.05-.02-.04-.01-.09,0-.13,0-.01,0-.02.02-.04.03-.02.02-.02-.03.02-.02-.06.17.05,0-.02-.12-.05-.26-.13-.38-.21l-.51.88c.18.09.37.17.55.25l.12-.93c-.91.16-1.72.73-2.2,1.51-.18.3,0,.64.3.75.71.25,1.54.13,2.17-.28.32-.2.6-.47.8-.8.09-.15.15-.31.23-.46.02-.03.03-.06.05-.09,0,0,.07-.11.04-.07-.04.05.05-.06.06-.05.02,0-.11.04-.11.04.27-.03.51-.21.51-.51,0-.25-.23-.54-.51-.51-.46.05-.74.32-.94.72-.07.15-.13.3-.22.44-.07.11-.14.18-.27.31-.02.02-.06.05-.02.02-.03.03-.07.05-.11.07-.07.04-.13.08-.2.12,0,0-.12.06-.08.04.04-.02-.07.03-.09.03-.07.02-.15.04-.22.07-.04,0-.09.02-.13.02.07-.01-.02,0-.04,0-.08,0-.15,0-.23,0-.01,0-.14-.01-.09,0,.05,0-.09-.02-.09-.02-.09-.02-.17-.04-.25-.07l.3.75c.35-.57.92-.93,1.6-1.05.41-.07.51-.75.12-.93-.18-.09-.37-.17-.55-.25-.25-.11-.55-.07-.7.18s-.04.54.18.7c.3.2.63.38,1,.35.41-.03.8-.31.89-.72.1-.41-.14-.79-.49-.98-.08-.04-.16-.07-.24-.11-.02,0-.18-.08-.13-.05-.03-.02-.07-.03-.09-.05.02,0,.03.02.04.04.04.09.04.17,0,.25-.1.12-.24.14-.43.07l.39-.93c-.6-.17-1.24-.16-1.83.05-.32.11-.54.59-.22.85.32.26.68.44,1.09.53.36.09.73.11,1.09.18.15.02.29.06.44.1.08.02.15.05.23.08-.07-.02.04.02.05.02.03.02.06.03.09.05.07.04.13.08.2.12-.05-.04.08.08.1.1.07.07.11.17.14.27l.63-.63c-.88-.3-1.77-.59-2.65-.89-.54-.18-.9.66-.39.93.31.16.61.33.92.49.26.14.69.03.75-.31.03-.17.06-.35.09-.52l-1-.13c.11.86.61,1.65,1.41,2.02.36.17.74-.03.76-.44.09-1.21-.21-2.44-.82-3.49-.25-.42-.96-.26-.95.26.03.98.07,1.96.1,2.94l.87-.36c-.48-.4-1.01-.74-1.59-1-.25-.11-.54-.07-.7.18-.13.22-.07.59.18.7l-.02.02Z"/>
      <path class="cls-1" d="M56.94,48.24c1.09.2,2.21.09,3.31,0,4.3-.35,8.25.04,12.56.02,1.18,0,2.59.44,3.76.63,2.55.41,4.45,1.32,6.61,2.78.4.27,1.39.09,1.69.49.33.44.5.97.63,1.51.58,2.43.41,5.04-.49,7.36-.06.15-.12.31-.24.43-.11.13-.27.2-.42.27-2.59,1.21-5.31,2.1-8.1,2.66-4.72.93-9.55.88-14.36.81-1.96-.02-3.92-.05-5.89-.07-.11,0-.22,0-.31-.08-.14-.12-.67-.49-.66-.68.09-1.06-.16-1.8-.54-2.79-.26-.71-.3-1.49-.33-2.25-.13-3.11.22-5.64.99-8.66.24-.93.4-2.08,1.16-2.64"/>
      <path d="M56.8,48.73c1.48.25,2.96.03,4.44-.05,1.49-.09,2.87-.09,4.31-.07,1.44.02,2.91.08,4.37.12,1.46.04,2.88-.07,4.28.19,2.48.47,4.91.93,7.13,2.2.49.28.96.59,1.44.9.47.31.88.29,1.4.38.54.09.66.78.78,1.25.17.66.28,1.33.33,2.01.1,1.42-.04,2.84-.43,4.21-.09.29-.17.58-.28.87-.16.4-.37.51-.75.69-.68.31-1.37.6-2.07.87-2.72,1.03-5.55,1.71-8.44,2.06-2.88.34-5.91.4-8.87.38-1.46,0-2.93-.03-4.39-.05-.74,0-1.49-.02-2.23-.03-.34,0-.67,0-1.02-.01-.27,0-.7.06-.89-.04-.09-.05-.19-.15-.26-.22-.17-.16-.14-.13-.11-.37.04-.31-.03-.66-.09-.96-.12-.67-.41-1.28-.59-1.94-.21-.76-.21-1.58-.23-2.36-.02-.73,0-1.47.03-2.2.09-1.53.33-3.05.67-4.54.15-.68.32-1.36.49-2.03.15-.59.33-1.18.83-1.58.5-.4-.22-1.13-.72-.72-.94.77-1.11,2.13-1.38,3.24-.35,1.39-.62,2.8-.78,4.23-.16,1.42-.2,2.91-.13,4.37.03.68.08,1.38.29,2.04.22.7.53,1.37.58,2.12.04.54-.08.94.33,1.35s.77.61,1.35.62c1.62.03,3.25.04,4.87.06,3.23.04,6.47.1,9.7-.11,3.23-.22,6.27-.7,9.28-1.64,1.43-.45,2.84-.99,4.2-1.61.3-.14.63-.26.87-.51.22-.23.32-.53.43-.82.26-.68.44-1.39.57-2.11.26-1.48.28-2.98.04-4.46-.16-1.02-.41-2.7-1.6-2.99-.24-.06-.5-.07-.75-.1-.28-.04-.43-.14-.67-.3-.56-.37-1.13-.72-1.72-1.04-1.17-.63-2.41-1.12-3.71-1.41-.72-.17-1.46-.27-2.18-.43-.79-.18-1.59-.36-2.39-.41-1.74-.1-3.51-.05-5.26-.11-1.75-.05-3.5-.1-5.24-.05-1.75.05-3.75.45-5.56.15-.64-.11-.91.87-.27.98h.01Z"/>
      <path d="M69.61,56.38c.41.44.83.86,1.27,1.27.33.31.84.08.87-.36.07-1.19-1.33-1.96-2.38-1.63-1.26.4-1.66,1.89-1.46,3.07.09.49.89.48.98,0,.27-1.38.54-2.76.81-4.15l-1-.13v2.32s.96-.26.96-.26c-.47-.75-1.25-1.31-2.13-1.44-.46-.07-.76.32-.57.75.46,1.02,1.64,1.56,2.72,1.34.22-.04.37-.28.37-.49,0-.5-.38-.86-.87-.9-.22-.02-.43.17-.49.37-.26.93-.15,1.91.28,2.77.09.18.32.27.51.24.22-.03.34-.17.42-.37.23-.56.25-1.2.09-1.78l-.85.5c.34.3.73.52,1.17.61.2.04.48-.02.57-.23.13-.29.15-.61,0-.9-.16-.29-.5-.51-.82-.42-.38.11-.5.57-.26.87.21.26.59.35.87.15.28-.2.3-.64.12-.92-.04-.07-.11-.14-.16-.2,0,0-.13-.15-.07-.06-.01-.02-.07-.13-.03-.04-.02-.04-.03-.09-.03-.13.02.11,0-.03,0-.04,0-.1-.03.06,0-.05.02-.04.02-.09.04-.13-.03.08.02-.02.03-.04.04-.09-.04.03.03-.04,0,0,.1-.09.05-.05-.07.05.12-.07.04-.03-.07.03.16-.03.02-.02.5-.06.69-.64.26-.95-.25-.18-.51-.35-.76-.53l.1.8c.09-.07.2-.06.28-.04.63.16.9-.82.27-.98-.47-.12-.9,0-1.27.3-.28.22-.14.63.1.8.25.18.51.35.76.53l.26-.95c-.58.07-1.01.44-1.18,1-.08.24-.09.52-.02.77.03.12.09.24.15.35.04.06.09.12.14.18.03.03.06.06.09.09.12.15.15.04.09-.36l.22-.13c.22-.04.37.04.44.26v.27-.02c-.04.07-.09.15-.13.22h.02s-.22.12-.22.12h.03s-.27,0-.27,0c-.09-.04-.12-.08-.08-.18l.57-.23c-.27-.06-.52-.16-.72-.34-.37-.33-1-.02-.85.5.12.43.08.83-.09,1.25l.93-.12c-.3-.61-.36-1.32-.18-1.98l-.49.37c-.06,0-.15-.04-.15-.12l.37-.49c-.18.04.04,0-.07.01-.05,0-.1,0-.14,0h-.14s-.13-.02-.07,0c-.19-.03-.35-.09-.48-.15-.32-.17-.52-.38-.67-.73l-.57.75c.64.09,1.19.42,1.52.97.26.42.95.26.95-.26v-2.32c0-.56-.89-.71-1.01-.13-.27,1.38-.54,2.76-.81,4.15h.98c-.02-.12-.03-.37-.02-.56.01-.16.05-.35.13-.55.04-.1.17-.33.24-.41.04-.04.08-.08.12-.12,0,0,.11-.09.07-.06.04-.03.08-.05.12-.08.02-.01.04-.02.07-.04-.04.02-.04.02,0,0,.04-.01.08-.02.12-.04.01,0,.16-.02.06-.02.09,0,.18,0,.27,0,.05,0-.05-.02.04,0,.05.01.09.02.14.04.02,0,.15.06.06.02.04.02.07.04.11.06.04.02.07.04.1.06.12.08-.06-.06.04.04.03.03.07.07.1.1.06.07,0-.02.02.02.02.03.04.07.06.1-.05-.09,0,.02.02.05,0,.02.02.15.01.04v.14l.87-.36c-.44-.41-.87-.83-1.27-1.27-.45-.48-1.16.24-.72.72h0Z"/>
      <path d="M79.32,45.84c-1.17-1.14-2.59-1.94-4.08-2.6-1.57-.7-3.18-1.37-4.84-1.83s-3.48-.7-5.22-.35c-1.59.32-3.04,1.14-4.34,2.09s-2.63,1.97-3.76,3.12c-1.21,1.22-1.92,2.63-2.28,4.31-.77,3.55-1.47,7.32-.94,10.96.22,1.56.7,3.14,1.61,4.44.91,1.3,2.21,2.17,3.72,2.67,1.65.55,3.43.83,5.16,1.06,1.85.25,3.7.4,5.57.42,1.87.02,3.7-.07,5.54-.28,1.73-.2,3.53-.41,5.2-.94,1.47-.46,2.69-1.31,3.48-2.65.78-1.34,1.07-2.78,1.29-4.24.54-3.62.61-7.45-.12-11.06-.32-1.58-.97-3.03-2.06-4.23-.97-1.08-2.19-1.91-3.44-2.63-.65-.37-1.31-.72-1.98-1.06-.58-.3-1.1.58-.51.88,2.36,1.21,4.94,2.55,6.23,4.98.78,1.47.97,3.2,1.12,4.82.16,1.73.18,3.48.07,5.22-.1,1.58-.26,3.18-.66,4.71-.34,1.31-.91,2.67-2.04,3.49-1.22.89-2.85,1.12-4.3,1.37-1.72.29-3.45.47-5.19.55-3.42.16-6.87-.08-10.23-.72-1.5-.28-3.09-.58-4.41-1.4-1.24-.77-2.05-2.04-2.52-3.4-1.13-3.22-.69-6.78-.1-10.06.28-1.57.45-3.33,1.2-4.76.7-1.32,1.87-2.3,3.01-3.22,1.13-.93,2.39-1.95,3.76-2.67,1.37-.72,2.95-1.03,4.55-.9,1.59.13,3.3.71,4.85,1.31,1.43.56,2.88,1.14,4.2,1.95.64.39,1.23.84,1.76,1.36.47.46,1.19-.26.72-.72h0Z"/>
      <path d="M56.29,49.01c4.21-.24,8.43-.39,12.65-.34,2.04.02,4.08.15,6.08.58,1.56.34,3.1.8,4.6,1.36,1.7.63,3.39,1.4,4.84,2.5.52.39,1.03-.49.51-.88-2.59-1.97-5.94-3.07-9.07-3.82-4-.96-8.17-.8-12.26-.71-2.45.05-4.9.15-7.34.29-.65.04-.65,1.05,0,1.02h0Z"/>
      <path d="M55.7,65.91c3.68.05,7.35-.02,11.02-.21,4.02-.2,8.08-.56,12.01-1.5,2.15-.51,4.24-1.22,6.24-2.17.59-.28.07-1.16-.51-.88-3.56,1.7-7.48,2.54-11.38,3.02-3.9.48-7.52.61-11.28.69-2.03.04-4.06.06-6.09.03-.65,0-.65,1.01,0,1.02h0Z"/>
      <path d="M40.93,42.64c-2.33-1.96-5.32-2.6-8.3-2.68-1.57-.04-3.14.06-4.71.19-1.57.13-3.28.26-4.72,1.05-1.44.79-2.27,2.07-3,3.41-.82,1.49-1.62,3.02-2.22,4.61-.65,1.71-.92,3.48-.79,5.3.13,1.82.46,3.57.84,5.3.72,3.24,1.9,6.56,4.11,9.1,1.05,1.21,2.39,2.13,3.96,2.49,1.68.39,3.46.29,5.17.14,3.5-.31,6.94-1.2,10.15-2.63,2.81-1.25,5.85-2.94,7.03-5.97.63-1.63.66-3.45.57-5.17-.09-1.62-.33-3.24-.72-4.82-.79-3.16-2.18-6.19-4.09-8.83-.47-.65-.98-1.28-1.5-1.89-.43-.49-1.15.23-.72.72,3.98,4.57,6.32,10.76,6.04,16.85-.07,1.58-.44,3.13-1.43,4.4-.9,1.15-2.13,1.99-3.39,2.7-2.84,1.58-5.97,2.66-9.16,3.24-1.61.3-3.24.46-4.87.49-1.63.03-3.24-.1-4.64-.97-2.57-1.62-4-4.86-4.87-7.65-.46-1.49-.79-3.02-1.06-4.56-.3-1.75-.59-3.57-.34-5.35.22-1.62.86-3.14,1.57-4.6.66-1.35,1.33-2.78,2.24-3.98.96-1.26,2.26-1.89,3.79-2.15,1.44-.25,2.92-.32,4.37-.39,2.76-.13,5.72-.06,8.24,1.21.63.31,1.21.69,1.75,1.14.5.42,1.22-.3.72-.72h0Z"/>
      <path d="M19.25,63.09c1.77.65,3.67.87,5.53,1.14,1.86.27,3.68.5,5.53.67,3.71.34,7.46.44,11.17.03,2.04-.23,4.07-.61,6.03-1.22.62-.19.36-1.18-.27-.98-6.95,2.14-14.48,1.6-21.58.61-2.05-.29-4.18-.52-6.14-1.23-.61-.22-.88.76-.27.98h0Z"/>
      <path d="M19.51,49.02c2.84-1.74,6.51-1.93,9.76-2.06,3.52-.14,7.06.09,10.53.71,1.95.35,3.87.81,5.77,1.38.63.19.89-.79.27-.98-6.91-2.09-14.33-2.73-21.48-1.69-1.87.27-3.73.75-5.36,1.75-.56.34-.05,1.22.51.88h0Z"/>
      <path d="M62.21,25.23c-1.26,2.81-3.67,4.97-6.34,6.48-2.68,1.51-5.64,2.43-8.57,3.34-3.33,1.03-6.66,2.06-9.99,3.1,2.57-2.17,5.01-4.49,7.31-6.94,2.23-2.37,4.38-4.98,5.27-8.11-7.8,6.65-16.77,11.92-26.38,15.49,1.06-.25,1.58-1.42,1.92-2.46,1.55-4.62,2.79-9.36,3.7-14.15-5.21,6.84-10.06,13.95-14.52,21.3-.03-3.59-.01-7.18.06-10.77.01-.56.03-1.14.26-1.66.24-.52.67-.92,1.1-1.3,1.83-1.62,3.72-3.19,5.66-4.69,2.24-1.73,4.58-3.4,7.22-4.4,2.9-1.1,6.04-1.36,9.13-1.55,3.37-.21,6.74-.35,10.12-.44,1.93-.04,4.11.04,5.38,1.5"/>
      <path d="M61.77,24.98c-3.11,6.82-11.42,8.59-17.88,10.6-2.24.7-4.48,1.39-6.72,2.08l.5.85c2.7-2.28,5.26-4.72,7.66-7.32,2.15-2.32,4.15-4.88,5.05-7.96.15-.52-.48-.81-.85-.5-6.02,5.12-12.72,9.42-19.88,12.74-2.06.96-4.15,1.83-6.27,2.62-.6.22-.37,1.16.27.98,1.2-.33,1.8-1.46,2.19-2.55.55-1.52,1.01-3.09,1.46-4.64.93-3.22,1.71-6.48,2.34-9.77.11-.59-.58-.85-.93-.39-4.05,5.32-7.89,10.81-11.49,16.44-1.03,1.61-2.03,3.22-3.02,4.86l.95.26c-.02-1.9-.02-3.79,0-5.69.01-1.9-.06-3.8.09-5.68.07-.86.51-1.39,1.13-1.95.67-.6,1.35-1.18,2.03-1.76,1.4-1.18,2.84-2.34,4.3-3.45,2.75-2.08,5.65-3.83,9.05-4.58,3.55-.78,7.27-.83,10.88-.99,2.05-.09,4.11-.2,6.16-.2,1.56,0,3.31.13,4.42,1.36.44.48,1.16-.24.72-.72-1.01-1.12-2.47-1.5-3.92-1.62-1.81-.14-3.65.01-5.46.08-3.86.15-7.79.22-11.62.83-1.81.29-3.57.77-5.24,1.53-1.67.76-3.12,1.69-4.56,2.74-1.51,1.09-2.98,2.26-4.42,3.44-.75.61-1.48,1.24-2.22,1.88-.63.54-1.33,1.07-1.79,1.77-.53.79-.51,1.75-.53,2.65-.02,1.15-.04,2.3-.05,3.46-.02,2.3-.02,4.6,0,6.91,0,.51.69.69.95.26,3.47-5.72,7.18-11.3,11.1-16.71,1.12-1.54,2.26-3.07,3.42-4.59l-.93-.39c-.58,3.04-1.29,6.05-2.13,9.02-.41,1.47-.86,2.94-1.33,4.39-.33.99-.65,2.52-1.81,2.85l.27.98c7.57-2.82,14.74-6.66,21.27-11.42,1.83-1.34,3.61-2.74,5.33-4.21l-.85-.5c-.88,3.02-2.91,5.5-5.03,7.76-2.33,2.5-4.82,4.86-7.43,7.07-.39.33.03,1,.5.85,4-1.24,8.03-2.45,12.02-3.73,3.49-1.13,6.98-2.5,9.78-4.94,1.43-1.24,2.63-2.75,3.42-4.48.27-.59-.61-1.11-.88-.51v.02Z"/>
      <path d="M70.28,26c1.68,3.09,5.22,4.67,7.47,7.38.82.99,1.5,2.17,2.63,2.77-.2-1.58.08-3.22.78-4.64,2.9,3.77,5,8.16,6.14,12.79.5-1.85,1.35-3.61,2.5-5.15,1.7,3.63,3.42,7.3,4.22,11.23.73,3.53.72,7.25,2.11,10.58.27-4.14.49-8.27.68-12.41.09-1.87.16-3.75.02-5.61-.12-1.73-.43-3.45-.73-5.16-.38-2.14-2.02-11.45-2.39-13.6"/>
      <path d="M69.84,26.25c1.2,2.16,3.22,3.6,5.09,5.13.94.77,1.85,1.58,2.61,2.53.76.95,1.47,2.04,2.59,2.67.3.17.81-.04.76-.44-.17-1.51.05-3.01.71-4.38h-.88c2.87,3.76,4.95,8.07,6.09,12.67.12.49.85.48.98,0,.5-1.82,1.33-3.51,2.45-5.03h-.88c1.63,3.47,3.26,6.98,4.09,10.74s.76,7.46,2.19,10.94c.21.52.96.47,1-.13.22-3.33.4-6.67.57-10.01.16-3.33.37-6.68-.07-10.01-.53-3.93-1.33-7.84-2.02-11.74-.3-1.72-.61-3.44-.91-5.15-.11-.64-1.09-.37-.98.27.61,3.44,1.22,6.89,1.82,10.34.3,1.68.61,3.35.88,5.04s.46,3.35.48,5.05c.02,1.7-.07,3.34-.15,5.02-.17,3.74-.38,7.47-.62,11.21l1-.13c-1.45-3.55-1.38-7.43-2.23-11.13-.86-3.77-2.52-7.31-4.16-10.8-.18-.38-.67-.28-.88,0-1.17,1.59-2.02,3.37-2.55,5.28h.98c-1.15-4.67-3.26-9.09-6.19-12.91-.21-.27-.7-.38-.88,0-.73,1.53-1.04,3.21-.85,4.9l.76-.44c-1.06-.59-1.69-1.65-2.44-2.57-.74-.92-1.64-1.72-2.56-2.47-1.8-1.47-3.77-2.85-4.93-4.93-.32-.57-1.2-.06-.88.51h0Z"/>
      <path d="M58.62,41.63c7.77-.19,15.54-.29,23.31-.31.65,0,.65-1.02,0-1.02-7.77.02-15.54.12-23.31.31-.65.02-.65,1.03,0,1.02Z"/>
      <path d="M16.52,39.81c7.79.18,15.5,1.49,23.28,1.62,2.21.04,4.42-.02,6.62-.22.65-.06.65-1.08,0-1.02-7.77.71-15.53-.4-23.26-1.03-2.21-.18-4.43-.32-6.65-.37-.65-.02-.65,1,0,1.02h0Z"/>
      <path d="M58.53,41.16c8.2-.11,16.4-.22,24.6-.33.65,0,.65-1.03,0-1.02-8.2.11-16.4.22-24.6.33-.65,0-.65,1.03,0,1.02Z"/>
      <path d="M46.47,39.55c-8.5.55-17.06.13-25.46-1.26-.64-.11-.91.88-.27.98,6.59,1.1,13.28,1.62,19.96,1.53,1.92-.02,3.85-.11,5.77-.23.65-.04.65-1.06,0-1.02h0Z"/>
      <path d="M41.87,88.89c5.54,1.34,11.38,1.16,16.83-.52.62-.19.36-1.18-.27-.98-5.28,1.63-10.92,1.82-16.29.52-.63-.15-.91.83-.27.98h0Z"/>
      <path d="M60.61,86.46c.02.2.03.41.02.61,0,.1,0,.2-.02.31,0,.04,0,.09-.01.13,0,.06,0,.06,0,0,0,.02,0,.04,0,.07-.03.2-.07.39-.13.58-.03.1-.06.2-.09.29-.02.04-.03.08-.04.12,0,.02-.08.19-.03.08-.11.24-.08.56.18.7.22.11.58.08.7-.18.37-.85.54-1.78.44-2.71-.03-.26-.22-.52-.51-.51-.25.01-.54.22-.51.51h0Z"/>
      <path d="M38.18,88.21c.3.55.9.9,1.52.92.13,0,.27-.06.36-.15.09-.09.15-.23.15-.36-.01-.28-.22-.5-.51-.51-.04,0-.09,0-.13,0l.13.02c-.11-.02-.22-.04-.33-.09l.12.05c-.11-.04-.2-.1-.29-.17l.1.08c-.09-.07-.16-.14-.23-.23l.08.1c-.04-.06-.08-.11-.11-.18-.06-.11-.19-.2-.3-.23s-.28-.02-.39.05c-.24.15-.32.44-.18.7h0Z"/>
      <path d="M88.36,57.64l.54.13c.07.02.13.02.2,0,.07,0,.13-.02.19-.06.06-.03.11-.08.14-.13.04-.05.08-.11.09-.18l.02-.13c0-.09-.02-.18-.07-.26-.07-.11-.17-.2-.3-.23l-.54-.13c-.07-.02-.13-.02-.2,0-.07,0-.13.02-.19.06-.06.03-.11.08-.14.13-.04.05-.08.11-.09.18l-.02.13c0,.09.02.18.07.26.07.11.17.2.3.23Z"/>
      <path d="M13.69,56.91h-.68c-.13,0-.27.06-.36.15-.05.04-.09.1-.11.16-.03.06-.04.13-.04.2,0,.13.05.27.15.36.1.09.22.15.36.15h.68c.13,0,.27-.06.36-.15.05-.04.09-.1.11-.16.03-.06.04-.13.04-.2,0-.13-.05-.27-.15-.36-.1-.09-.22-.15-.36-.15Z"/>
      <path d="M5.07,33.22c-1.64,1.83-2.63,4.67-3.11,7.59-.48,2.92-.5,5.95-.52,8.95-.02,3.66-.04,7.32-.06,10.98,0,.56.07,1.27.44,1.42.29-.8.57-1.59.86-2.39.11,4.01.39,8.02.85,11.98.8-.65,1.65-1.19,2.52-1.62.56-.27,1.16-.52,1.59-1.12.29-.42.48-.96.64-1.51,2.52-8.4,1.46-18,1.48-27.15"/>
      <path d="M4.71,32.87c-2.48,2.82-3.26,6.81-3.57,10.45-.38,4.36-.22,8.79-.24,13.17,0,1.22-.01,2.44-.02,3.66,0,.79-.13,2.02.69,2.47.3.17.63,0,.75-.31.29-.8.57-1.59.86-2.39l-1-.13c.11,4,.39,8,.85,11.98.05.46.51.65.87.36.87-.7,1.81-1.23,2.81-1.73.86-.43,1.44-1.03,1.8-1.93.8-2.02,1.17-4.29,1.46-6.44.61-4.55.56-9.15.45-13.73-.06-2.64-.14-5.28-.14-7.92,0-.66-1.02-.66-1.02,0,0,8.82,1.11,17.98-1.33,26.59-.15.55-.3,1.13-.59,1.62-.29.49-.72.74-1.2.97-1.06.52-2.03,1.12-2.95,1.86l.87.36c-.46-3.98-.74-7.98-.85-11.98-.02-.59-.8-.67-1-.13-.29.8-.57,1.59-.86,2.39l.75-.31c-.22-.12-.19-.69-.19-.91,0-.5,0-1,0-1.49,0-1.02.01-2.04.02-3.05.01-2.07.02-4.14.03-6.2.02-3.85-.01-7.79,1.02-11.53.49-1.78,1.22-3.55,2.46-4.95.43-.49-.28-1.21-.72-.72h0Z"/>
      <path d="M95.5,27.82c1.64,1.83,2.63,4.67,3.11,7.59.48,2.92.5,5.95.52,8.95.02,3.66.04,7.32.06,10.98,0,.56-.07,1.27-.44,1.42-.29-.8-.57-1.59-.86-2.39-.11,4.01-.39,8.02-.85,11.98-.8-.65-1.65-1.19-2.52-1.62-.56-.27-1.16-.52-1.59-1.12-.29-.42-.48-.96-.64-1.51-2.52-8.4-1.46-18-1.48-27.15"/>
      <path d="M95.14,28.18c2.31,2.62,3,6.45,3.28,9.82.33,4,.21,8.04.23,12.05,0,1.12.01,2.24.02,3.35,0,.58,0,1.15,0,1.73,0,.26.09,1.03-.19,1.18l.75.31c-.29-.8-.57-1.59-.86-2.39-.19-.53-.98-.46-1,.13-.11,4-.39,8-.85,11.98l.87-.36c-.82-.66-1.68-1.24-2.62-1.7-.4-.2-.83-.37-1.16-.67-.38-.35-.57-.84-.73-1.32-.67-2.06-1.07-4.23-1.33-6.37-.54-4.42-.46-8.9-.36-13.34.06-2.54.14-5.09.13-7.63,0-.66-1.02-.66-1.02,0,0,9.05-1.16,18.49,1.49,27.29.33,1.1.77,2.03,1.81,2.61,1.04.57,2.11,1.09,3.07,1.86.36.29.81.09.87-.36.46-3.98.74-7.98.85-11.98l-1,.13c.29.8.57,1.59.86,2.39.11.31.44.47.75.31.67-.37.69-1.28.69-1.96,0-1.12-.01-2.24-.02-3.35-.01-2.24-.02-4.47-.04-6.71-.02-4.16.04-8.44-1.11-12.48-.54-1.89-1.36-3.74-2.67-5.23-.44-.49-1.15.23-.72.72v-.02Z"/>
    </g>
  </g>
</svg>